<?xml version="1.0" encoding="UTF-8" standalone="no"?>
<svg
   width="375"
   height="150"
   viewBox="0 0 375 150"
   fill="none"
   version="1.1"
   id="svg12"
   sodipodi:docname="bluestar_big_logo.svg"
   inkscape:version="1.3.2 (091e20e, 2023-11-25, custom)"
   xmlns:inkscape="http://www.inkscape.org/namespaces/inkscape"
   xmlns:sodipodi="http://sodipodi.sourceforge.net/DTD/sodipodi-0.dtd"
   xmlns="http://www.w3.org/2000/svg"
   xmlns:svg="http://www.w3.org/2000/svg">
  <sodipodi:namedview
     id="namedview12"
     pagecolor="#ffffff"
     bordercolor="#000000"
     borderopacity="0.25"
     inkscape:showpageshadow="2"
     inkscape:pageopacity="0.0"
     inkscape:pagecheckerboard="0"
     inkscape:deskcolor="#d1d1d1"
     inkscape:zoom="4.896"
     inkscape:cx="187.5"
     inkscape:cy="75.061275"
     inkscape:window-width="2560"
     inkscape:window-height="1369"
     inkscape:window-x="-8"
     inkscape:window-y="-8"
     inkscape:window-maximized="1"
     inkscape:current-layer="svg12" />
  <g
     clip-path="url(#clip0_1020_224)"
     id="g1" />
  <g
     transform="matrix(0.62133524,0,0,0.62133524,74.444074,84.173263)"
     id="g3">
    <defs
       id="SvgjsDefs1458" />
    <g
       id="SvgjsG1459"
       featureKey="41S5F6-0"
       transform="matrix(2.8485136,0,0,2.8485136,-3.7687313,-3.7681432)"
       fill="#1d3545">
      <title
         id="title1">Compass Rose</title>
      <g
         transform="translate(0,-270.54165)"
         id="g2">
        <path
           d="m 13.213772,271.86451 c 0,0 -0.330414,1.57422 -0.495488,2.32002 -4.5004381,0.26792 -8.5490906,3.86959 -9.0589601,8.73324 l -2.3362718,0.39631 v 0.46306 c 0,0 1.6134986,0.33411 2.3099932,0.48122 0.1985943,4.8661 3.9842378,8.81007 8.7829127,9.25591 l 0.35795,2.16286 h 0.461085 c 0,0 0.299208,-1.46569 0.440854,-2.12958 4.942353,-0.18018 8.944344,-4.05901 9.314763,-8.9496 l 2.144671,-0.35588 v -0.5146 c 0,0 -1.544218,-0.24974 -2.134668,-0.37507 -0.252918,-4.86504 -4.091669,-8.78509 -8.923317,-9.16078 l -0.38626,-2.32711 z m 0.492434,3.34015 c 0.0055,2.4e-4 0.01076,5.1e-4 0.01624,0.001 l 1.076884,6.33911 -1.062731,1.02014 z m -1.218447,0.0233 -1.090029,4.9338 -0.114252,-0.088 -3.6512887,-2.74595 c 1.3257803,-1.15724 3.0009837,-1.92351 4.8555757,-2.0999 z m 1.767502,0.0117 c 1.910825,0.20498 3.634487,1.02629 4.965774,2.2657 l -4.14067,2.60541 z m -7.2732527,2.70448 2.4995783,3.97133 -4.7494068,0.81693 c 0.2387283,-1.84004 1.0459864,-3.49869 2.2498285,-4.78823 z m 12.8214547,0.17491 c 1.203273,1.35934 1.992566,3.09346 2.151743,5.01369 l -5.155869,-1.07979 0.08695,-0.11524 z m -10.2399721,1.31231 1.2730491,0.95946 -0.05359,0.24468 z m 7.9608451,0.82196 -0.951498,1.24155 -0.233582,-0.0495 z m -6.599827,1.93713 1.077895,1.07775 -7.3217933,0.0294 c 5.166e-4,-0.01 0.00155,-0.021 0.00216,-0.0313 z m 10.963963,2.06755 -6.431952,1.0919 -1.020262,-1.06156 z m -17.2078613,0.22142 4.9617532,1.05247 c -0.9876881,1.29318 -1.9752297,2.58696 -2.9626946,3.88031 -1.1331736,-1.35517 -1.8666128,-3.05726 -1.9990586,-4.93243 z m 17.2614503,0.29623 c -0.207903,1.97623 -1.079006,3.74997 -2.386329,5.10062 l -2.67146,-4.24393 z m -9.213644,0.19614 0.03033,7.4553 -1.093063,-6.43113 z m -2.8585447,1.11617 0.2325667,0.0495 -1.1850752,1.19201 z m 5.7049497,0.84824 1.189123,1.16976 -1.234624,-0.94025 z m -0.604674,0.45393 c 1.326727,1.0143 2.6542,2.0289 3.98091,3.04319 -1.378383,1.1797 -3.126047,1.94092 -5.054754,2.06756 z m -3.580504,0.0556 0.846336,5.00863 c -1.931027,-0.24085 -3.6609387,-1.11193 -4.9789369,-2.40686 z"
           style="font-style:normal;font-variant:normal;font-weight:normal;font-stretch:normal;font-size:medium;line-height:normal;font-family:sans-serif;font-variant-ligatures:normal;font-variant-position:normal;font-variant-caps:normal;font-variant-numeric:normal;font-variant-alternates:normal;font-feature-settings:normal;text-indent:0;text-align:start;text-decoration:none;text-decoration-line:none;text-decoration-style:solid;letter-spacing:normal;word-spacing:normal;text-transform:none;writing-mode:lr-tb;direction:ltr;text-orientation:mixed;dominant-baseline:auto;baseline-shift:baseline;text-anchor:start;white-space:normal;shape-padding:0;clip-rule:nonzero;display:inline;overflow:visible;visibility:visible;opacity:1;isolation:auto;mix-blend-mode:normal;color-interpolation:sRGB;color-interpolation-filters:linearRGB;solid-opacity:1;vector-effect:none;fill:#1d3545;fill-opacity:1;fill-rule:nonzero;stroke:none;stroke-width:0.264583;stroke-linecap:butt;stroke-linejoin:miter;stroke-miterlimit:4;stroke-dasharray:none;stroke-dashoffset:0;stroke-opacity:1;color-rendering:auto;image-rendering:auto;shape-rendering:auto;text-rendering:auto;enable-background:accumulate"
           id="path1-7" />
      </g>
    </g>
    <g
       id="SvgjsG1460"
       featureKey="RGwKHf-0"
       transform="matrix(1.738831,0,0,1.738831,85.913403,11.984333)"
       fill="#1d3545">
      <path
         d="m 7.94,12.3 c 1.84,0.42 3.04,1.94 3.04,3.7 0,2.46 -1.6,4 -5.06,4 H 1.2 V 6 h 4.78 c 2.74,0 4.1,1.56 4.1,3.38 0,1.34 -0.76,2.42 -2.14,2.92 z M 5.86,7.48 h -3 v 4.28 h 3 c 1.6,0 2.58,-0.88 2.58,-2.16 0,-1.32 -0.92,-2.12 -2.58,-2.12 z m 0,11.04 c 2.4,0 3.46,-0.98 3.46,-2.66 0,-1.46 -1.06,-2.72 -3.36,-2.72 h -3.1 v 5.38 z m 18.868,-0.08 h 6.28 V 20 h -7.94 V 6 h 1.66 z M 51.696,6 h 1.66 v 8.92 c 0,3.44 -2.24,5.38 -5.08,5.38 -2.84,0 -5.08,-1.94 -5.08,-5.38 V 6 h 1.66 v 8.92 c 0,2.62 1.56,3.8 3.42,3.8 1.86,0 3.42,-1.18 3.42,-3.8 z m 15.908,12.44 h 6.66 V 20 h -7.06 -1.26 V 6 h 1.66 6.48 v 1.56 h -6.48 v 4.64 h 5.04 v 1.52 h -5.04 z M 90.852,5.76 c 2.18,0 3.78,1.44 4.38,2.94 l -1.26,0.68 c -0.64,-1.28 -1.66,-2.12 -3.12,-2.12 -1.54,0 -2.6,0.88 -2.6,2.1 0,1.14 0.72,1.86 2.24,2.44 l 1.02,0.38 c 2.52,0.94 4.1,2.02 4.1,4.24 0,2.4 -2.3,3.88 -4.68,3.88 -2.38,0 -4.34,-1.44 -4.88,-3.44 l 1.34,-0.64 c 0.48,1.48 1.74,2.56 3.54,2.56 1.6,0 2.96,-0.92 2.96,-2.34 0,-1.6 -1.12,-2.2 -2.78,-2.84 l -1.04,-0.4 c -2.12,-0.8 -3.48,-1.9 -3.48,-3.88 0,-2.04 1.8,-3.56 4.26,-3.56 z M 116.14,6 v 1.56 h -3.88 V 20 H 110.6 V 7.56 h -3.9 V 6 Z m 23.508,14 -1.44,-3.3 h -7.48 l -1.44,3.3 h -1.76 l 6.24,-14 h 1.38 l 6.26,14 z m -8.3,-4.7 h 6.24 l -3.12,-7.12 z m 32.128,4.7 h -1.8 l -3.54,-5.04 h -0.38 -2.9 V 20 h -1.66 V 6 h 4.56 c 3.14,0 4.96,1.92 4.96,4.52 0,2 -1.08,3.56 -3,4.16 z m -8.62,-12.44 v 5.92 h 2.86 c 2.02,0 3.34,-1.04 3.34,-2.96 0,-1.94 -1.32,-2.96 -3.34,-2.96 z"
         id="path2-5" />
    </g>
  </g>
  <defs
     id="defs12">
    <clipPath
       id="clip0_1020_224">
      <rect
         width="40"
         height="40"
         fill="white"
         transform="translate(81.2778 86)"
         id="rect12" />
    </clipPath>
  </defs>
</svg>
