<?xml version="1.0" encoding="UTF-8" standalone="no"?>
<svg
   width="375"
   height="150"
   viewBox="0 0 375 150"
   fill="none"
   version="1.1"
   id="svg12"
   sodipodi:docname="nauticsensors_big_logo.svg"
   inkscape:version="1.3.2 (091e20e, 2023-11-25, custom)"
   xmlns:inkscape="http://www.inkscape.org/namespaces/inkscape"
   xmlns:sodipodi="http://sodipodi.sourceforge.net/DTD/sodipodi-0.dtd"
   xmlns="http://www.w3.org/2000/svg"
   xmlns:svg="http://www.w3.org/2000/svg">
  <sodipodi:namedview
     id="namedview12"
     pagecolor="#ffffff"
     bordercolor="#000000"
     borderopacity="0.25"
     inkscape:showpageshadow="2"
     inkscape:pageopacity="0.0"
     inkscape:pagecheckerboard="0"
     inkscape:deskcolor="#d1d1d1"
     inkscape:zoom="4.896"
     inkscape:cx="150.12255"
     inkscape:cy="75.061275"
     inkscape:window-width="2560"
     inkscape:window-height="1369"
     inkscape:window-x="-8"
     inkscape:window-y="-8"
     inkscape:window-maximized="1"
     inkscape:current-layer="svg12" />
  <defs
     id="defs12">
    <clipPath
       id="clip0_1020_224">
      <rect
         width="40"
         height="40"
         fill="white"
         transform="translate(81.2778 86)"
         id="rect12" />
    </clipPath>
  </defs>
  <g
     transform="matrix(0.64885501,0,0,0.64885501,70.753228,92.152301)"
     id="g3"
     style="fill:#1d3545;fill-opacity:1">
    <defs
       id="SvgjsDefs2690" />
    <g
       id="SvgjsG2691"
       featureKey="41S5F6-0"
       transform="matrix(1.8527307,0,0,1.8527307,-2.4512589,-2.4508763)"
       fill="#1d3545"
       style="fill:#1d3545;fill-opacity:1">
      <title
         id="title1">Compass Rose</title>
      <g
         transform="translate(0,-270.54165)"
         id="g2"
         style="fill:#1d3545;fill-opacity:1">
        <path
           d="m 13.213772,271.86451 c 0,0 -0.330414,1.57422 -0.495488,2.32002 -4.5004381,0.26792 -8.5490906,3.86959 -9.0589601,8.73324 l -2.3362718,0.39631 v 0.46306 c 0,0 1.6134986,0.33411 2.3099932,0.48122 0.1985943,4.8661 3.9842378,8.81007 8.7829127,9.25591 l 0.35795,2.16286 h 0.461085 c 0,0 0.299208,-1.46569 0.440854,-2.12958 4.942353,-0.18018 8.944344,-4.05901 9.314763,-8.9496 l 2.144671,-0.35588 v -0.5146 c 0,0 -1.544218,-0.24974 -2.134668,-0.37507 -0.252918,-4.86504 -4.091669,-8.78509 -8.923317,-9.16078 l -0.38626,-2.32711 z m 0.492434,3.34015 c 0.0055,2.4e-4 0.01076,5.1e-4 0.01624,0.001 l 1.076884,6.33911 -1.062731,1.02014 z m -1.218447,0.0233 -1.090029,4.9338 -0.114252,-0.088 -3.6512887,-2.74595 c 1.3257803,-1.15724 3.0009837,-1.92351 4.8555757,-2.0999 z m 1.767502,0.0117 c 1.910825,0.20498 3.634487,1.02629 4.965774,2.2657 l -4.14067,2.60541 z m -7.2732527,2.70448 2.4995783,3.97133 -4.7494068,0.81693 c 0.2387283,-1.84004 1.0459864,-3.49869 2.2498285,-4.78823 z m 12.8214547,0.17491 c 1.203273,1.35934 1.992566,3.09346 2.151743,5.01369 l -5.155869,-1.07979 0.08695,-0.11524 z m -10.2399721,1.31231 1.2730491,0.95946 -0.05359,0.24468 z m 7.9608451,0.82196 -0.951498,1.24155 -0.233582,-0.0495 z m -6.599827,1.93713 1.077895,1.07775 -7.3217933,0.0294 c 5.166e-4,-0.01 0.00155,-0.021 0.00216,-0.0313 z m 10.963963,2.06755 -6.431952,1.0919 -1.020262,-1.06156 z m -17.2078613,0.22142 4.9617532,1.05247 c -0.9876881,1.29318 -1.9752297,2.58696 -2.9626946,3.88031 -1.1331736,-1.35517 -1.8666128,-3.05726 -1.9990586,-4.93243 z m 17.2614503,0.29623 c -0.207903,1.97623 -1.079006,3.74997 -2.386329,5.10062 l -2.67146,-4.24393 z m -9.213644,0.19614 0.03033,7.4553 -1.093063,-6.43113 z m -2.8585447,1.11617 0.2325667,0.0495 -1.1850752,1.19201 z m 5.7049497,0.84824 1.189123,1.16976 -1.234624,-0.94025 z m -0.604674,0.45393 c 1.326727,1.0143 2.6542,2.0289 3.98091,3.04319 -1.378383,1.1797 -3.126047,1.94092 -5.054754,2.06756 z m -3.580504,0.0556 0.846336,5.00863 c -1.931027,-0.24085 -3.6609387,-1.11193 -4.9789369,-2.40686 z"
           style="font-style:normal;font-variant:normal;font-weight:normal;font-stretch:normal;font-size:medium;line-height:normal;font-family:sans-serif;font-variant-ligatures:normal;font-variant-position:normal;font-variant-caps:normal;font-variant-numeric:normal;font-variant-alternates:normal;font-feature-settings:normal;text-indent:0;text-align:start;text-decoration:none;text-decoration-line:none;text-decoration-style:solid;letter-spacing:normal;word-spacing:normal;text-transform:none;writing-mode:lr-tb;direction:ltr;text-orientation:mixed;dominant-baseline:auto;baseline-shift:baseline;text-anchor:start;white-space:normal;shape-padding:0;clip-rule:nonzero;display:inline;overflow:visible;visibility:visible;opacity:1;isolation:auto;mix-blend-mode:normal;color-interpolation:sRGB;color-interpolation-filters:linearRGB;solid-opacity:1;vector-effect:none;fill:#1d3545;fill-opacity:1;fill-rule:nonzero;stroke:none;stroke-width:0.264583;stroke-linecap:butt;stroke-linejoin:miter;stroke-miterlimit:4;stroke-dasharray:none;stroke-dashoffset:0;stroke-opacity:1;color-rendering:auto;image-rendering:auto;shape-rendering:auto;text-rendering:auto;enable-background:accumulate"
           id="path1-3" />
      </g>
    </g>
    <g
       id="SvgjsG2692"
       featureKey="RGwKHf-0"
       transform="matrix(1.0557423,0,0,1.0557423,62.395272,8.4467958)"
       fill="#323232"
       style="fill:#1d3545;fill-opacity:1">
      <path
         d="M 11.04,17.24 V 5.64 h 1.88 V 20 H 10.74 L 3.44,8.4 H 3.4 V 20 H 1.52 V 5.64 h 2.3 L 11,17.24 Z m 22.936,-1.42 h -5.76 l -1.5,4.18 h -2 l 5.4,-14.36 h 2.2 l 5.2,14.36 h -2.12 z m -5.16,-1.72 h 4.46 l -2.12,-6.32 h -0.04 z M 58.712,5.64 h 1.94 v 9.32 c 0,2.94 -1.84,5.42 -5.78,5.42 -3.86,0 -5.52,-2.48 -5.52,-5.16 V 5.64 h 1.94 v 9.04 c 0,3.12 1.9,3.98 3.64,3.98 1.78,0 3.78,-0.82 3.78,-3.94 z M 72.488,7.36 V 5.64 h 11.66 v 1.72 h -4.86 V 20 h -1.94 V 7.36 Z M 98.184,5.64 V 20 h -1.94 V 5.64 Z m 25.276,4.32 h -1.88 c -0.54,-2.52 -2.64,-2.98 -4.02,-2.98 -2.6,0 -4.7,1.92 -4.7,5.7 0,3.38 1.2,5.98 4.76,5.98 1.26,0 3.44,-0.6 4.1,-3.94 h 1.88 c -0.8,5.42 -5.2,5.66 -6.28,5.66 -3.26,0 -6.46,-2.12 -6.46,-7.64 0,-4.42 2.52,-7.48 6.7,-7.48 3.7,0 5.62,2.3 5.9,4.7 z m 22.956,-0.12 h -1.82 c -0.1,-2.22 -1.94,-2.92 -3.56,-2.92 -1.22,0 -3.28,0.34 -3.28,2.52 0,1.22 0.86,1.62 1.7,1.82 l 4.1,0.94 c 1.86,0.44 3.26,1.56 3.26,3.84 0,3.4 -3.16,4.34 -5.62,4.34 -2.66,0 -3.7,-0.8 -4.34,-1.38 -1.22,-1.1 -1.46,-2.3 -1.46,-3.64 h 1.82 c 0,2.6 2.12,3.36 3.96,3.36 1.4,0 3.76,-0.36 3.76,-2.42 0,-1.5 -0.7,-1.98 -3.06,-2.54 l -2.94,-0.68 c -0.94,-0.22 -3.06,-0.88 -3.06,-3.38 0,-2.24 1.46,-4.44 4.94,-4.44 5.02,0 5.52,3 5.6,4.58 z m 23.656,8.44 V 20 h -10.6 V 5.64 h 10.46 v 1.72 h -8.52 v 4.4 h 7.86 v 1.72 h -7.86 v 4.8 z m 22.056,-1.04 V 5.64 h 1.88 V 20 h -2.18 l -7.3,-11.6 h -0.04 V 20 h -1.88 V 5.64 h 2.3 l 7.18,11.6 z m 25.396,-7.4 h -1.82 c -0.1,-2.22 -1.94,-2.92 -3.56,-2.92 -1.22,0 -3.28,0.34 -3.28,2.52 0,1.22 0.86,1.62 1.7,1.82 l 4.1,0.94 c 1.86,0.44 3.26,1.56 3.26,3.84 0,3.4 -3.16,4.34 -5.62,4.34 -2.66,0 -3.7,-0.8 -4.34,-1.38 -1.22,-1.1 -1.46,-2.3 -1.46,-3.64 h 1.82 c 0,2.6 2.12,3.36 3.96,3.36 1.4,0 3.76,-0.36 3.76,-2.42 0,-1.5 -0.7,-1.98 -3.06,-2.54 l -2.94,-0.68 c -0.94,-0.22 -3.06,-0.88 -3.06,-3.38 0,-2.24 1.46,-4.44 4.94,-4.44 5.02,0 5.52,3 5.6,4.58 z m 24.116,2.98 c 0,-3.38 -1.88,-5.84 -5,-5.84 -3.12,0 -5,2.46 -5,5.84 0,3.38 1.88,5.84 5,5.84 3.12,0 5,-2.46 5,-5.84 z m 2,0 c 0,3.1 -1.64,7.56 -7,7.56 -5.36,0 -7,-4.46 -7,-7.56 0,-3.1 1.64,-7.56 7,-7.56 5.36,0 7,4.46 7,7.56 z m 14.476,1.02 V 20 h -1.94 V 5.64 h 6.64 c 2.36,0 4.72,0.82 4.72,3.86 0,2.12 -1.08,2.9 -2,3.44 0.82,0.34 1.64,0.7 1.72,2.7 l 0.12,2.6 c 0.02,0.8 0.12,1.1 0.72,1.44 V 20 h -2.38 c -0.28,-0.88 -0.34,-3.06 -0.34,-3.6 0,-1.18 -0.24,-2.56 -2.56,-2.56 z m 0,-6.54 v 4.88 h 4.5 c 1.42,0 2.92,-0.36 2.92,-2.48 0,-2.22 -1.62,-2.4 -2.58,-2.4 z m 32.736,2.54 h -1.82 c -0.1,-2.22 -1.94,-2.92 -3.56,-2.92 -1.22,0 -3.28,0.34 -3.28,2.52 0,1.22 0.86,1.62 1.7,1.82 l 4.1,0.94 c 1.86,0.44 3.26,1.56 3.26,3.84 0,3.4 -3.16,4.34 -5.62,4.34 -2.66,0 -3.7,-0.8 -4.34,-1.38 -1.22,-1.1 -1.46,-2.3 -1.46,-3.64 h 1.82 c 0,2.6 2.12,3.36 3.96,3.36 1.4,0 3.76,-0.36 3.76,-2.42 0,-1.5 -0.7,-1.98 -3.06,-2.54 l -2.94,-0.68 c -0.94,-0.22 -3.06,-0.88 -3.06,-3.38 0,-2.24 1.46,-4.44 4.94,-4.44 5.02,0 5.52,3 5.6,4.58 z"
         id="path2-7"
         style="fill:#1d3545;fill-opacity:1" />
    </g>
  </g>
</svg>
